<svg xmlns="http://www.w3.org/2000/svg" xmlns:xlink="http://www.w3.org/1999/xlink" height="512" viewBox="0 0 510 510" width="512"  xmlns:v="https://vecta.io/nano"><linearGradient id="A" gradientUnits="userSpaceOnUse"><stop offset="0" stop-color="#0b799d"/><stop offset="1" stop-color="#07485e"/></linearGradient><linearGradient id="B" x1="255" x2="255"  xlink:href="#A" y1="270.701" y2="34.898"/><linearGradient id="C" gradientUnits="userSpaceOnUse" x1="255" x2="255" y1="232.855" y2="144.039"><stop offset="0" stop-color="#07485e" stop-opacity="0"/><stop offset="1" stop-color="#03232e"/></linearGradient><linearGradient id="D" gradientUnits="userSpaceOnUse" x1="253.079" x2="253.079" y1="220.239" y2="122.466"><stop offset="0" stop-color="#ffdecf"/><stop offset="1" stop-color="#faa68e"/></linearGradient><linearGradient id="E" gradientUnits="userSpaceOnUse" x1="253.079" x2="253.079" y1="149.591" y2="278.824"><stop offset="0" stop-color="#faa68e" stop-opacity="0"/><stop offset="1" stop-color="#c9766e"/></linearGradient><linearGradient id="F" gradientUnits="userSpaceOnUse" x1="255" x2="255" y1="108.776" y2="273.787"><stop offset="0" stop-color="#07485e" stop-opacity="0"/><stop offset=".123" stop-color="#0d5066" stop-opacity=".123"/><stop offset=".31" stop-color="#1c657b" stop-opacity=".3"/><stop offset=".539" stop-color="#35889e" stop-opacity=".54"/><stop offset=".799" stop-color="#58b8ce" stop-opacity=".8"/><stop offset="1" stop-color="#76e2f8"/></linearGradient><linearGradient id="G" gradientUnits="userSpaceOnUse"><stop offset="0" stop-color="#b5dbff"/><stop offset="1" stop-color="#48b2e3"/></linearGradient><linearGradient id="H" x1="255" x2="255"  xlink:href="#G" y1="450.488" y2="531.935"/><linearGradient id="I" gradientUnits="userSpaceOnUse"><stop offset="0" stop-color="#b5dbff" stop-opacity="0"/><stop offset=".173" stop-color="#8fc5e9" stop-opacity=".173"/><stop offset=".454" stop-color="#56a4c8" stop-opacity=".454"/><stop offset=".696" stop-color="#2d8db1" stop-opacity=".696"/><stop offset=".885" stop-color="#147ea2" stop-opacity=".885"/><stop offset="1" stop-color="#0b799d"/></linearGradient><linearGradient id="J" x1="250.996" x2="279.243"  xlink:href="#I" y1="461.932" y2="571.662"/><linearGradient id="K" x1="182.08" x2="420.502"  xlink:href="#G" y1="285.084" y2="523.506"/><linearGradient id="L" gradientUnits="userSpaceOnUse" x1="245.58" x2="282.217" y1="348.585" y2="385.222"><stop offset="0" stop-color="#edf5ff"/><stop offset="1" stop-color="#d5e8fe"/></linearGradient><linearGradient id="M" x1="255" x2="255"  xlink:href="#I" y1="420.311" y2="484.371"/><linearGradient id="N" x1="152.583" x2="152.583"  xlink:href="#G" y1="468.999" y2="485.678"/><linearGradient id="O" x1="357.417" x2="357.417"  xlink:href="#G" y1="468.999" y2="485.678"/><linearGradient id="P" x1="202.485" x2="374.19"  xlink:href="#A" y1="107.494" y2="279.199"/><ellipse cx="255" cy="216.429" fill="url(#B)" rx="155.929" ry="75.466"/><ellipse cx="255" cy="196.858" fill="url(#C)" rx="143.65" ry="95.038"/><path d="M253.08 265.238c-51.495 0-93.24-41.744-93.24-93.24v-69.456c0-51.494 41.744-93.24 93.24-93.24s93.24 41.745 93.24 93.24V172c0 51.494-41.744 93.238-93.24 93.238z" fill="url(#D)"/><path d="M258.376 205.338h-10.594a14.28 14.28 0 0 1-14.195-15.804l5.54-51.487h27.907l5.54 51.487c.908 8.44-5.706 15.804-14.196 15.804z" fill="url(#E)"/><path d="M401.352 212.838l.065.66C398.44 94.83 334.027 0 255 0S111.56 94.83 108.583 213.497c.016-.22.045-.44.065-.66a39.71 39.71 0 0 0-.169 3.591c0 41.68 65.6 75.466 146.52 75.466s146.52-33.787 146.52-75.466c0-1.204-.06-2.4-.17-3.59z" fill="url(#F)"/><path d="M53.33 461.66v13.248c0 6.13 2.74 11.94 7.47 15.838l16.396 13.516c4.5 3.7 10.15 5.738 15.983 5.738H416.82a25.13 25.13 0 0 0 15.983-5.738l16.396-13.516c4.73-3.9 7.47-9.708 7.47-15.838V461.66c0-9.656-7.827-17.483-17.483-17.483H70.812c-9.656 0-17.483 7.827-17.483 17.483z" fill="url(#H)"/><path d="M53.443 477.037a20.52 20.52 0 0 0 7.356 13.709l16.396 13.516c4.5 3.7 10.15 5.738 15.983 5.738H416.82a25.13 25.13 0 0 0 15.983-5.738l16.396-13.516c4.178-3.444 6.8-8.38 7.356-13.71z" fill="url(#J)"/><path d="M422.175 471.76H87.825c-12.937 0-23.424-10.487-23.424-23.424v-180.66c0-12.937 10.487-23.424 23.424-23.424h334.35c12.937 0 23.424 10.487 23.424 23.424v180.66a23.43 23.43 0 0 1-23.425 23.424z" fill="url(#K)"/><circle cx="255" cy="358.004" fill="url(#L)" r="35.66"/><path d="M64.4 388.225v60.862c0 12.52 10.835 22.672 24.2 22.672h332.796c13.366 0 24.2-10.15 24.2-22.672v-60.862z" fill="url(#M)"/><path d="M166.423 482.394h-27.68c-5.023 0-9.095-4.072-9.095-9.095v-3.56c0-5.023 4.072-9.095 9.095-9.095h27.68c5.023 0 9.095 4.072 9.095 9.095v3.56c0 5.023-4.072 9.095-9.095 9.095z" fill="url(#N)"/><path d="M371.257 482.394h-27.68c-5.023 0-9.095-4.072-9.095-9.095v-3.56c0-5.023 4.072-9.095 9.095-9.095h27.68c5.023 0 9.095 4.072 9.095 9.095v3.56c0 5.023-4.07 9.095-9.095 9.095z" fill="url(#O)"/><path d="M410.818 213.497c-3.19-40.32-71.727-72.535-155.818-72.535s-152.63 32.215-155.818 72.535C102.35 94.83 170.9 0 255 0s152.65 94.83 155.818 213.497z" fill="url(#P)"/></svg>