<svg enable-background="new 0 0 648 308" viewBox="0 0 648 308" xmlns="http://www.w3.org/2000/svg" xmlns:xlink="http://www.w3.org/1999/xlink"><clipPath id="a"><circle cx="374" cy="153.9" r="57.7"/></clipPath><path d="m0 168.3c4.1-135.7 168.7-76 260.7-118.7 70.8-32.8 123.4-49.6 214.6-49.6 101.4 0 172.7 51.9 172.7 139.6s-104.6 103.2-152.1 103.2c-72.6 0-90.6 51.9-171 62.5-91.7 12.2-328.5-15.1-324.9-137z" fill="#1c262b"/><path d="m356 274.3 1.1 6 76.3 14.3-1.2-6z" fill="#ff6d37"/><path d="m429.4 288.1 5.8-62.5-79.2 48.7z" fill="#f79b78"/><path d="m373.3 219.4c-18.3-5.6-51.8-26.9-51.8-26.9-10.3-5.4-13.6-19.2-7.2-30.7s19.9-16 29.9-10c0 0 28.8 20.5 46.8 26.7s57.6 13 57.6 13c10.8 3 16.9 14.8 12.5 27.1-3.7 10.6-15 13.4-26.1 12.2.1-.1-38.3-4.2-61.7-11.4z" fill="#ebe5e0"/><path d="m433.4 294.6 88.5-54.2-.5-2.6-84.8 52-4.4-1.2z" fill="#ff6d37"/><path d="m532.3 158c.1-2.8-2.2-5.2-5-5.3-.4 0-.8 0-1.2.1l-87.2 53.3c-1.2.8-2 2-2.1 3.5l-6.9 74.1c-.2 2.1 1 4 3 4.7l1.8.6c1.3.4 2.6.3 3.8-.4l84.6-48.9c1.3-.7 2.1-2.1 2.3-3.5z" fill="#f2805b"/><path d="m436.9 207.3-7.5 80.8 7.2 1.7 7.2-78c-.3-6.2-6.9-4.5-6.9-4.5z" fill="#ff6d37"/><path d="m125.3 101 59.7 34.9-82.4-18.7c-10.2-2-20.6 2.8-25.8 11.8l-.2.4c-7.3 13.9 1.7 31.9 18.4 36.9l184.2 55.5c17.8 5.2 35.9-1 44.4-15.3l6.9-11.6c11.5-19.4 1.2-45.7-22-55.9l-163.1-82.3c-12-4.8-25-1.4-31.2 8.3-7.7 11.8-2.5 28.2 11.1 36z" fill="#ebe5e0"/><path d="m402.2 273.1s-42.4-5.3-65.1-15.9c-18.3-9-34.9-21.1-48.9-35.9-10.5-8-12.5-23-4.5-33.4l.4-.5c8.1-10.4 23.1-12.2 33.5-4.1l.5.4s19.7 25 36.3 34.3c14.4 8 53.4 14.7 53.4 14.7 11.1 1.9 19 11.4 17.4 22.5-1.7 11.2-11.8 19.1-23 17.9" fill="#ebe5e0"/><path d="m378.7 110.5-12-40.8-5 1.5 11.9 40.9z" fill="#ccc8c5"/><circle cx="363.6" cy="69.4" fill="#e46037" r="12"/><path d="m373.8 63c-3.5-5.5-10.8-7.1-16.3-3.8-.1.1-.3.3-.4.5-3.1 4.4-1.8 11.8 3 16.5 2.6 2.7 6.3 4 10 3.4 5.5-3.5 7.2-10.9 3.7-16.6z" fill="#ef6b39"/><path d="m419.6 118.6c19.5 25.1 14.9 61.3-10.2 80.8l-.1.1c-25.2 19.4-61.3 14.8-80.8-10.4-19.4-25.2-14.8-61.3 10.4-80.8 25.1-19.3 61.2-14.7 80.7 10.3z" fill="#ebe5e0"/><path d="m391.6 208.9c-30.3 9.8-62.8-6.8-72.5-37.1-3.8-11.6-3.7-24.2.1-35.8-.7 46.3 23.9 70.2 72.4 72.9z" fill="#e4dcd2"/><g clip-path="url(#a)"><path d="m428.6 135.3c-6.1-4.4-16.6-5.8-36.3-2.1-22.2 4.2-31.2 10.7-34.2 18.7-2.1 5.4-1.3 11.4-.1 17.9 3 16.1 24.1 30.2 46.1 26.1 5.3-1 10.3-3 14.9-5.9 12.4-15.5 15.9-36.2 9.6-54.7z" fill="#afc7d0"/><path d="m406.1 141c12.5 8.8 14 20 12.9 32.6-.1.4.1.8.5 1 .5.2 1 .1 1.3-.4 3.4-5.5 4.8-12 3.9-18.4-1.8-9.7-5.3-18.1-15.2-20.6-3.3-.9-6.1 3.8-3.2 5.8z" fill="#eef1f5" opacity=".34"/><path d="m405.2 195.6-1.1.2c-22 4.1-43.1-10-46.1-26.1-1.2-6.5-1.9-12.5.1-17.9.6-1.5 1.3-2.9 2.3-4.2-1.3 26.2 15.2 46.1 44.8 48z" fill="#a0b7c5"/></g><g opacity=".9"><circle cx="345.9" cy="145" fill="#726b65" r="9.8"/><circle cx="345.9" cy="145" fill="#ebe5e0" opacity=".3" r="6.5"/></g><path d="m197.1 199.5c2.2 1.1 5 .2 6.1-2 .1-.2.2-.4.2-.6 2.8-8.6 20.4-36.1 40.1-39.1 27-4.1-12.9-5-12.9-5s-28.6 15.5-35.8 41.5c-.5 2 .4 4.2 2.3 5.2z" fill="#f18863"/><path d="m275.3 222.8c-2.3-.8-3.6-3.4-2.7-5.8.1-.2.2-.4.3-.6 4.3-8 12.1-39.6.6-56.1-15.6-22.5 12.5 5.9 12.5 5.9s8.5 31.5-5.4 54.7c-1.1 1.8-3.3 2.6-5.3 1.9z" fill="#f18863"/><path d="m214.8 112-5.5 33.6c-1.5 9.1 7.2 20 19.3 24.6l58 19.7c12.1 4.5 21.2 1.5 22.7-7.5l6.1-37.4c1.5-9.3-7.5-20.6-19.8-25.1l-55-20.2c-12.5-4.5-24.4 3.2-25.9 12.5z" fill="#e67f60"/><path d="m226.4 103.2-5.7 37.2c-1 6.1 5 13.6 13.1 16.6l70.8 26c2.5.9 4.7.1 5-1.7l6.4-39c1.3-7.9-6.3-17.5-16.8-21.4l-56.8-20.8c-7.8-2.8-15.1-2.7-16 3.1z" fill="#f18863"/><path d="m245.1 101.2-7.1 43.1c-.5 3.2 2.5 7.1 6.8 8.7l2.2.8c4.2 1.6 8.2.2 8.7-3l7.1-43z" fill="#4a3e5e"/><ellipse cx="265.7" cy="150.8" fill="#ebe5e0" rx="3.5" ry="5.2" transform="matrix(.4974 -.8675 .8675 .4974 2.7443 306.3098)"/><ellipse cx="267.8" cy="138.5" fill="#ebe5e0" rx="3.5" ry="5.2" transform="matrix(.4974 -.8675 .8675 .4974 14.4404 301.8926)"/><g fill="#7d728b"><path d="m242.7 142.6-.4 2.2c0 .9.6 1.6 1.5 1.8l6.1 2.2c.9.4 1.7 0 1.8-.6l.4-2.1c-.1-.9-.7-1.6-1.5-1.8l-6.1-2.3c-.8-.4-1.7-.1-1.8.6z"/><path d="m244.4 132.6-.4 2.1c0 .9.6 1.6 1.5 1.8l6.1 2.3c.9.3 1.7 0 1.8-.6l.4-2.1c0-.9-.6-1.6-1.4-1.8l-6.2-2.2c-.8-.5-1.8-.2-1.8.5z"/><path d="m246 122.6-.4 2.1c.1.9.6 1.6 1.5 1.8l6.1 2.2c.9.4 1.7 0 1.8-.6l.3-2.2c-.1-.9-.6-1.6-1.5-1.8l-6.2-2.2c-.7-.3-1.5 0-1.6.7z"/><path d="m247.7 112.6-.4 2.2c0 .9.6 1.6 1.4 1.8l6.2 2.2c.9.3 1.7 0 1.8-.6l.4-2.2c0-.9-.6-1.6-1.5-1.8l-6.2-2.2c-.8-.4-1.6-.1-1.7.6z"/></g><path d="m268.4 115.8-2.1 12.8c-.1.9.8 2.1 2 2.5l1.8.6c1.2.5 2.5 0 2.5-.9l2.1-12.8c.1-.9-.8-2-2-2.5l-1.8-.7c-1.2-.3-2.4.1-2.5 1z" fill="#5f5278"/><ellipse cx="510.9" cy="69.4" fill="#fff" opacity=".2" rx="61" ry="61" transform="matrix(.7071 -.7071 .7071 .7071 100.5577 381.6076)"/><circle cx="510.9" cy="69.4" fill="#fff" opacity=".2" r="43.7"/><path d="m545.8 49.2.2 37.8-35 20.2-.1-37.8z" fill="#ff6c37"/><path d="m511 107.2-33.7-19.6-.1-37.8 33.8 19.6z" fill="#e66037"/><path d="m510.9 69.4-33.8-19.6 34.9-20.2 33.8 19.6z" fill="rgb(106 224 171)"/><g clip-rule="evenodd" fill-rule="evenodd"><g fill="#ff9770"><path d="m208.6 278.9 1.2-3.4 3.4-1.2-3.4-1.3-1.2-3.4-1.2 3.4-3.4 1.3 3.4 1.2z"/><path d="m24.2 148.1 1.2-3.4 3.4-1.2-3.4-1.2-1.2-3.4-1.2 3.4-3.4 1.2 3.4 1.2z"/><path d="m241.9 45.7 1.2-3.4 3.4-1.2-3.4-1.2-1.2-3.4-1.2 3.4-3.4 1.2 3.4 1.2z"/><path d="m311 101 1.2-3.4 3.4-1.2-3.4-1.2-1.2-3.4-1.2 3.4-3.4 1.2 3.4 1.2z"/><path d="m495 292.7 1.2-3.4 3.4-1.2-3.4-1.2-1.2-3.4-1.2 3.4-3.4 1.2 3.4 1.2z"/><path d="m607.8 188.1 1.2-3.4 3.4-1.2-3.4-1.2-1.2-3.4-1.2 3.4-3.4 1.2 3.4 1.2z"/></g><path d="m241.6 248.5 3.4-9.2 9.2-3.4-9.2-3.4-3.4-9.2-3.4 9.2-9.2 3.4 9.2 3.4z" fill="#80718f" opacity=".5"/><path d="m555.3 204.4 3.4-9.2 9.2-3.4-9.2-3.4-3.4-9.2-3.4 9.2-9.2 3.4 9.2 3.4z" fill="#80718f" opacity=".5"/><path d="m254 92.3 3.4-9.2 9.2-3.4-9.2-3.4-3.4-9.2-3.4 9.2-9.2 3.4 9.2 3.4z" fill="#80718f" opacity=".5"/><path d="m599.9 93.9 3.4-9.2 9.2-3.4-9.2-3.4-3.4-9.2-3.4 9.2-9.2 3.4 9.2 3.4z" fill="#80718f" opacity=".5"/><path d="m41.3 219.7 3.4-9.2 9.2-3.4-9.2-3.4-3.4-9.2-3.3 9.2-9.2 3.4 9.2 3.4z" fill="#c9dbe6" opacity=".5"/><path d="m204.7 46.5 3.3-9.2 9.2-3.4-9.2-3.4-3.4-9.2-3.4 9.2-9.2 3.4 9.2 3.4z" fill="#80718f" opacity=".5"/><path d="m93.6 195.3 2.1-5.8 5.8-2.1-5.8-2.1-2.1-5.8-2.1 5.8-5.8 2.1 5.8 2.1s2.1 5.8 2.1 5.8z" fill="#ffc333" opacity=".5"/><path d="m624.5 149.8 2.1-5.8 5.8-2.1-5.8-2.1-2.1-5.8-2.1 5.8-5.8 2.1 5.8 2.1z" fill="#dbe8f1" opacity=".5"/><g fill="#c9dbe6"><path d="m300.7 282.5 2.2-6 6-2.2-6-2.2-2.2-6-2.2 6-6 2.2 6 2.2z" opacity=".5"/><path d="m85.4 106 2.2-6 6-2.2-6-2.2-2.2-6-2.2 6-6 2.2 6 2.2z" opacity=".5"/><path d="m546.7 287.1 2.2-6 6-2.2-6-2.2-2.2-6-2.2 6-6 2.2 6 2.2z" opacity=".5"/><path d="m467.2 159.9 2.2-6 6-2.2-6-2.2-2.2-6-2.2 6-6 2.2 6 2.2z" opacity=".5"/><path d="m330.1 54.7 2.2-6 6-2.2-6-2.2-2.2-6-2.2 6-6 2.2 6 2.2z" opacity=".5"/><path d="m169.2 233.9 2.2-6 6-2.2-6-2.2-2.2-6-2.2 6-6 2.2 6 2.2z" opacity=".5"/></g><path d="m416 88 2.2-6 6-2.2-6-2.2-2.2-6-2.2 6-6 2.2 6 2.2z" fill="#ffc333" opacity=".5"/><path d="m525.9 267 2.2-6 6-2.2-6-2.2-2.2-6-2.2 6-6 2.2 6 2.2z" fill="#ffc333" opacity=".5"/><path d="m111.9 256.5 2.8-7.6 7.6-2.8-7.6-2.8-2.8-7.6-2.8 7.6-7.6 2.8 7.6 2.8z" fill="#ff9770"/><path d="m412.5 33.3 2.8-7.5 7.6-2.8-7.5-2.8-2.8-7.6-2.8 7.6-7.6 2.8 7.5 2.8z" fill="#ff9770"/><path d="m573.1 146.3 2.8-7.6 7.5-2.8-7.5-2.8-2.8-7.6-2.8 7.6-7.5 2.8 7.5 2.8z" fill="#ff9770"/><path d="m273.5 33.3 2.8-7.5 7.5-2.8-7.5-2.8-2.8-7.6-2.8 7.6-7.5 2.8 7.5 2.8z" fill="#ff9770"/></g><path d="m315.9 142.4c1.3-7.9-6.3-17.5-16.8-21.4l-15.3-5.6-4.7 28.4c-1.6 9.6 7.5 21.3 20.5 26l11.1 4.1z" fill="#5f5278"/></svg>